inDegrees=no
num_controls=7
num_derivatives=13
num_iterations=136
num_multipliers=7
num_parameters=0
num_slacks=7
num_states=26
objective=5.108466
objective_accelerations=0.393425
objective_balance=0.012906
objective_effort=0.354737
objective_height=4.300355
objective_ligament=0.047043
solver_duration=1203.184766
status=Solve_Succeeded
success=true
DataType=double
version=3
OpenSimVersion=4.4-2022-07-23-0e9fedc
endheader
time	/jointset/ground_pelvis/pelvis_tilt/value	/jointset/ground_pelvis/pelvis_tx/value	/jointset/ground_pelvis/pelvis_ty/value	/jointset/hip_r/hip_flexion_r/value	/jointset/hip_r/hip_adduction_r/value	/jointset/hip_r/hip_rotation_r/value	/jointset/back/lumbar_extension/value	/jointset/patellofemoral_r/patellar_flexion_r/value	/jointset/knee_r/knee_flexion_r/value	/jointset/knee_r/knee_adduction_r/value	/jointset/knee_r/knee_rotation_r/value	/jointset/ankle_r/ankle_angle_r/value	/jointset/subtalar_r/subtalar_angle_r/value	/jointset/ground_pelvis/pelvis_tilt/speed	/jointset/ground_pelvis/pelvis_tx/speed	/jointset/ground_pelvis/pelvis_ty/speed	/jointset/hip_r/hip_flexion_r/speed	/jointset/hip_r/hip_adduction_r/speed	/jointset/hip_r/hip_rotation_r/speed	/jointset/back/lumbar_extension/speed	/jointset/patellofemoral_r/patellar_flexion_r/speed	/jointset/knee_r/knee_flexion_r/speed	/jointset/knee_r/knee_adduction_r/speed	/jointset/knee_r/knee_rotation_r/speed	/jointset/ankle_r/ankle_angle_r/speed	/jointset/subtalar_r/subtalar_angle_r/speed	/forceset/tau_hip_flexion_r	/forceset/tau_hip_adduction_r	/forceset/tau_hip_rotation_r	/forceset/tau_knee_flexion_r	/forceset/tau_ankle_angle_r	/forceset/tau_subtalar_angle_r	/forceset/tau_lumbar_extension	lambda_cid13_p0	lambda_cid14_p0	lambda_cid14_p1	lambda_cid14_p2	lambda_cid14_p3	lambda_cid14_p4	lambda_cid14_p5	/jointset/ground_pelvis/pelvis_tilt/accel	/jointset/ground_pelvis/pelvis_tx/accel	/jointset/ground_pelvis/pelvis_ty/accel	/jointset/hip_r/hip_flexion_r/accel	/jointset/hip_r/hip_adduction_r/accel	/jointset/hip_r/hip_rotation_r/accel	/jointset/back/lumbar_extension/accel	/jointset/patellofemoral_r/patellar_flexion_r/accel	/jointset/knee_r/knee_flexion_r/accel	/jointset/knee_r/knee_adduction_r/accel	/jointset/knee_r/knee_rotation_r/accel	/jointset/ankle_r/ankle_angle_r/accel	/jointset/subtalar_r/subtalar_angle_r/accel	gamma_cid13_p0	gamma_cid14_p0	gamma_cid14_p1	gamma_cid14_p2	gamma_cid14_p3	gamma_cid14_p4	gamma_cid14_p5
0.5	-0.0722430228107343	0.05541908051665568	0.8449929638616268	0.7001167706013808	-0.2148565609963968	-0.1600118292776457	-0.6250539476331924	0.8228854147483764	0.8228854147483488	-0.05028038098702524	0.1745246361153315	0.2864193483290166	0.1483108056111938	-0.1928564445070951	-0.1580221721382324	-0.3481863339249676	1.360474311369934	-0.00692154628569265	0.1111407032449246	-0.744310246259399	1.587351076759439	1.587351076759447	-0.4384660024419247	4.189878206159774e-05	0.5248062630288683	0.2036385669472685	-0.1545716272912092	0.01101193975243134	0.01503302596410861	-0.266967423064143	-0.02136628823271805	-0.00178061605099171	0.2123881778550435	-15.48030618591545	-49.81341925198173	-7.260557048446514	-0.9731380579839071	-0.1356778686545265	-646.3526128811258	61.46546359975193	0.1132728669502851	0.3813728097845112	-0.3010308592427093	-0.9428799438783944	-0.2189639670914212	-0.6185599796946845	1.440259396861598	-1.112622244532561	-1.112622244532566	0.329343210998093	0.003491097631748327	-0.410953352673327	-0.2834556096700832	-3.421064249717198e-08	-5.50934389614211e-08	-1.747613254552402e-09	-8.416763208019354e-07	3.1596329012305e-08	-1.25815956551163e-07	2.395144987899514e-07
0.51	-0.07416566285965194	0.05385811846345864	0.8414967987122335	0.7136724651999602	-0.2149370814115134	-0.1589301740176216	-0.6324240304041364	0.838701183961283	0.8387011839612655	-0.05464662090237887	0.174525066213669	0.2916459938460015	0.1503319819879794	-0.1916405967130775	-0.1541518875336974	-0.3509694655549121	1.35047488776511	-0.009172871047280328	0.1051866681475698	-0.7296106730078444	1.575581033644264	1.575581033644273	-0.4347566800892131	5.115195344757058e-05	0.5204528241143809	0.200569951805438	-0.1594284531782567	0.0117281498047663	0.01531111406083055	-0.2708508318894532	-0.0227586534224251	-0.001053847588038618	0.2171824476363689	-14.69188642690095	-50.44525260289482	-7.182571583594768	-0.8404827930550944	-0.09245050686389482	-649.7866039102837	61.90394643672643	0.1303804415566547	0.3926165356435811	-0.2553948189353879	-1.056939911809014	-0.2269121041842681	-0.584486306757658	1.499151527609838	-1.242448583679622	-1.242448583679482	0.3954920949690758	0.000528685034357654	-0.4580380857535205	-0.3226922515147703	-3.529646737739472e-08	-6.518081613399227e-08	-8.135920844693897e-08	-9.771294422384688e-07	4.490088670654659e-08	-1.304594750834572e-07	2.091732365837141e-07
0.52	-0.0760752164894484	0.0523364113062779	0.8379751141457279	0.7271224722938792	-0.2150398541489485	-0.1579081913149631	-0.639644248394905	0.8543926020953021	0.8543926020952968	-0.05897501452469849	0.1745257660953009	0.2968270051888571	0.1523216466563314	-0.1902391606818865	-0.1501711929349708	-0.3532902173474259	1.339336810439304	-0.01137201074855077	0.09920619177014488	-0.7143372902239841	1.562480860982304	1.562480860982314	-0.4308967438340498	9.585545052679891e-05	0.5156794282032106	0.1973362252605984	-0.1642852790653263	0.01244435985713113	0.01558920215753635	-0.2747342407147725	-0.02415101861212359	-0.0003270791250362918	0.2219767174176702	-13.90144095679818	-51.08024745566784	-7.104125061432538	-0.709060292700527	-0.06540665437438024	-653.2719233479772	62.38682536232893	0.150390514385035	0.4034548086227183	-0.2085548917565551	-1.170610688074898	-0.2085269550278584	-0.6238482357084849	1.555021303322767	-1.37864815388978	-1.378648153889781	0.3594659914883703	0.01058116277004299	-0.494944752009969	-0.3164778902717648	-4.005821340963448e-08	-7.906891242221555e-08	-1.412685056830893e-07	-1.154508236201702e-06	5.879308030742335e-08	-1.408445073701451e-07	1.972646348156179e-07
0.53	-0.07796973774170948	0.05085494874733799	0.8344325479787424	0.7404555002271992	-0.2151645433850216	-0.1569450705790918	-0.646709049899965	0.8699466801141036	0.8699466801141054	-0.06326294529219013	0.1745267459349613	0.3019581092649865	0.1542777746649866	-0.1886270134152269	-0.1461144147605221	-0.3551445044942569	1.32709045841388	-0.01355812221842514	0.09345951666182374	-0.698543181816018	1.548133028181655	1.548133028181663	-0.426627359901946	8.895791272434114e-05	0.5104666045639306	0.1938539729752304	-0.1693165361728094	0.01392275255611899	0.01585001580488055	-0.2780258977820478	-0.02629992287290901	-1.338381039796316e-06	0.226817302205878	-13.11073450323068	-51.99910247965622	-7.280360760011758	-0.5018372432249593	0.2942104959381379	-656.7190128228672	62.27777862819715	0.1723294518795414	0.407838153491414	-0.1621181526889926	-1.278407423007025	-0.2227048690355841	-0.5439876429006509	1.603579955400504	-1.493099520769326	-1.493099520769726	0.4699323890771945	-0.008238703541011694	-0.5456617360301209	-0.369585433042133	-4.208838105889504e-08	-6.179761270594425e-08	9.284254161951628e-09	-9.613319304670417e-07	3.112812429707699e-08	-1.154752456931836e-07	2.487988756673464e-07
